 http://www.imdb.com/title/tt1496883/
 
http://www.moviemeter.nl/film/57892

Nederland
Drama
95 minuten

Geregisseerd door Diede in 't Veld
Met Talisia Misiedjan, Titia Hoogendoorn en Judy Doorman

De scholieren van het Spangalis College verlaten hun vertrouwde schoolomgeving en gaan op werkweek naar de Ardennen. Onder leiding van docent Jochem en Miss Madge (docente Engels) voeren de leerlingen in teams opdrachten uit met als hoogtepunt een zware dropping aan het eind van de week. De onderlinge verwikkelingen staan een soepele samenwerking in de weg. Hebben de scholieren zich het verloop van deze week iets te rooskleurig voorgesteld? Tijdens een zeer spannende reddingsactie worden de zaken op scherp gezet en ontdekt iedereen wat hij waard is.

Info:

General
Complete name                    : SpangaS op Survival-AC3-5,1-DVDRip-2009.avi
Format                           : AVI
Format/Info                      : Audio Video Interleave
File size                        : 1.36 GiB
Duration                         : 1h 28mn
Overall bit rate                 : 2 205 Kbps
Writing application              : VirtualDubMod 1.5.4.1 (build 2178/release)
Writing library                  : VirtualDubMod build 2178/release

Video
ID                               : 0
Format                           : MPEG-4 Visual
Format profile                   : Simple@L3
Format settings, BVOP            : No
Format settings, QPel            : No
Format settings, GMC             : No warppoints
Format settings, Matrix          : Default (H.263)
Codec ID                         : XVID
Codec ID/Hint                    : XviD
Duration                         : 1h 28mn
Bit rate                         : 1 747 Kbps
Width                            : 640 pixels
Height                           : 352 pixels
Display aspect ratio             : 16:9
Frame rate                       : 25.000 fps
Resolution                       : 24 bits
Colorimetry                      : 4:2:0
Scan type                        : Progressive
Bits/(Pixel*Frame)               : 0.310
Stream size                      : 1.08 GiB (79%)
Writing library                  : XviD 1.1.2 (UTC 2006-11-01)

Audio
ID                               : 1
Format                           : AC-3
Format/Info                      : Audio Coding 3
Codec ID                         : 2000
Duration                         : 1h 28mn
Bit rate mode                    : Constant
Bit rate                         : 448 Kbps
Channel(s)                       : 6 channels
Channel positions                : Front: L C R, Surround: L R, LFE
Sampling rate                    : 48.0 KHz
Stream size                      : 283 MiB (20%)
Alignment                        : Split accross interleaves
Interleave, duration             : 40 ms (1.00 video frame)
Interleave, preload duration     : 500 ms

Veel plezier met deze film.